<?xml version="1.0" encoding="UTF-8" standalone="no"?>
<!-- Created with Inkscape (http://www.inkscape.org/) -->

<svg
   xmlns:dc="http://purl.org/dc/elements/1.1/"
   xmlns:cc="http://creativecommons.org/ns#"
   xmlns:rdf="http://www.w3.org/1999/02/22-rdf-syntax-ns#"
   xmlns:svg="http://www.w3.org/2000/svg"
   xmlns="http://www.w3.org/2000/svg"
   xmlns:sodipodi="http://sodipodi.sourceforge.net/DTD/sodipodi-0.dtd"
   xmlns:inkscape="http://www.inkscape.org/namespaces/inkscape"
   width="200"
   height="200"
   viewBox="0 0 52.916665 52.916668"
   version="1.1"
   id="svg8"
   inkscape:version="0.92.3 (2405546, 2018-03-11)"
   sodipodi:docname="icono.svg">
  <defs
     id="defs2" />
  <sodipodi:namedview
     id="base"
     pagecolor="#ffffff"
     bordercolor="#666666"
     borderopacity="1.0"
     inkscape:pageopacity="0.0"
     inkscape:pageshadow="2"
     inkscape:zoom="2.8"
     inkscape:cx="74.832309"
     inkscape:cy="96.363185"
     inkscape:document-units="mm"
     inkscape:current-layer="layer1"
     showgrid="true"
     units="px"
     inkscape:window-width="1366"
     inkscape:window-height="745"
     inkscape:window-x="-8"
     inkscape:window-y="-8"
     inkscape:window-maximized="1">
    <inkscape:grid
       type="xygrid"
       id="grid841" />
  </sodipodi:namedview>
  <metadata
     id="metadata5">
    <rdf:RDF>
      <cc:Work
         rdf:about="">
        <dc:format>image/svg+xml</dc:format>
        <dc:type
           rdf:resource="http://purl.org/dc/dcmitype/StillImage" />
        <dc:title />
      </cc:Work>
    </rdf:RDF>
  </metadata>
  <g
     inkscape:label="Capa 1"
     inkscape:groupmode="layer"
     id="layer1"
     transform="translate(0,-244.08332)">
    <rect
       style="fill:#ecf0f1;fill-opacity:1;fill-rule:evenodd;stroke:none;stroke-width:0.57158298;stroke-linejoin:miter;stroke-miterlimit:4;stroke-dasharray:none;stroke-dashoffset:0;stroke-opacity:1"
       id="rect815"
       width="52.916668"
       height="52.916668"
       x="2.5687237e-008"
       y="244.08334" />
    <g
       aria-label="t"
       style="font-style:normal;font-variant:normal;font-weight:normal;font-stretch:normal;font-size:42.33333206px;line-height:1.25;font-family:Symbol;-inkscape-font-specification:'Symbol, Normal';font-variant-ligatures:normal;font-variant-caps:normal;font-variant-numeric:normal;font-feature-settings:normal;text-align:start;letter-spacing:0px;word-spacing:0px;writing-mode:lr-tb;text-anchor:start;fill:#2980b9;fill-opacity:1;stroke:none;stroke-width:0.26458332"
       id="text829">
      <path
         d="m 18.808449,254.65032 v 3.03857 H 12.35923 q -0.702799,6.80062 -0.702799,9.32243 0,2.00505 0.74414,2.91455 0.764812,0.88884 1.901693,0.88884 0.847493,0 1.467611,-0.57878 0.620117,-0.57877 0.909505,-1.98437 h 0.72347 q -0.3514,3.38997 -1.508952,4.69222 -1.157552,1.28157 -2.707845,1.28157 -1.632975,0 -2.728515,-1.46761 -1.0955408,-1.48828 -1.0955408,-5.29167 0,-2.99723 0.7441408,-9.77718 H 8.163104 q -1.6743163,0 -2.6251627,0.62012 -0.9508463,0.59945 -1.881022,2.29443 H 2.8921081 q 1.4882812,-3.96875 2.6665038,-4.96093 1.1782226,-0.99219 3.3486327,-0.99219 z"
         style=""
         id="path3278" />
    </g>
    <text
       xml:space="preserve"
       style="font-style:normal;font-weight:normal;font-size:10.58333302px;line-height:1.25;font-family:sans-serif;letter-spacing:0px;word-spacing:0px;fill:#2c3e50;fill-opacity:1;stroke:none;stroke-width:0.26458332"
       x="18.596424"
       y="268.87863"
       id="text835"><tspan
         sodipodi:role="line"
         id="tspan833"
         x="18.596424"
         y="268.87863"
         style="fill:#2c3e50;fill-opacity:1;stroke-width:0.26458332">aller</tspan></text>
    <text
       xml:space="preserve"
       style="font-style:normal;font-variant:normal;font-weight:normal;font-stretch:normal;font-size:12.69999981px;line-height:1.25;font-family:sans-serif;-inkscape-font-specification:'sans-serif, Normal';font-variant-ligatures:normal;font-variant-caps:normal;font-variant-numeric:normal;font-feature-settings:normal;text-align:start;letter-spacing:0px;word-spacing:0px;writing-mode:lr-tb;text-anchor:start;fill:#d35400;fill-opacity:1;stroke:none;stroke-width:0.26458332;"
       x="22.867064"
       y="255.98038"
       id="text839"><tspan
         sodipodi:role="line"
         id="tspan837"
         x="22.867064"
         y="255.98038"
         style="font-style:normal;font-variant:normal;font-weight:normal;font-stretch:normal;font-size:12.69999981px;font-family:sans-serif;-inkscape-font-specification:'sans-serif, Normal';font-variant-ligatures:normal;font-variant-caps:normal;font-variant-numeric:normal;font-feature-settings:normal;text-align:start;writing-mode:lr-tb;text-anchor:start;fill:#d35400;fill-opacity:1;stroke-width:0.26458332;">UAM</tspan></text>
    <text
       id="text845"
       y="277.8746"
       x="40.292278"
       style="font-style:normal;font-variant:normal;font-weight:normal;font-stretch:normal;font-size:7.05555534px;line-height:1.25;font-family:sans-serif;-inkscape-font-specification:'sans-serif, Normal';font-variant-ligatures:normal;font-variant-caps:normal;font-variant-numeric:normal;font-feature-settings:normal;text-align:start;letter-spacing:0px;word-spacing:0px;writing-mode:lr-tb;text-anchor:start;fill:#2c3e50;fill-opacity:1;stroke:none;stroke-width:0.26458332"
       xml:space="preserve"><tspan
         style="font-style:normal;font-variant:normal;font-weight:normal;font-stretch:normal;font-size:7.05555534px;font-family:sans-serif;-inkscape-font-specification:'sans-serif, Normal';font-variant-ligatures:normal;font-variant-caps:normal;font-variant-numeric:normal;font-feature-settings:normal;text-align:start;writing-mode:lr-tb;text-anchor:start;fill:#2c3e50;fill-opacity:1;stroke-width:0.26458332"
         y="277.8746"
         x="40.292278"
         id="tspan843"
         sodipodi:role="line">de</tspan></text>
    <g
       aria-label="m"
       style="font-style:normal;font-variant:normal;font-weight:normal;font-stretch:normal;font-size:25.39999962px;line-height:1.25;font-family:Symbol;-inkscape-font-specification:'Symbol, Normal';font-variant-ligatures:normal;font-variant-caps:normal;font-variant-numeric:normal;font-feature-settings:normal;text-align:start;letter-spacing:0px;word-spacing:0px;writing-mode:lr-tb;text-anchor:start;fill:#16a085;fill-opacity:1;stroke:none;stroke-width:0.26458332"
       id="text853">
      <path
         d="m 27.01466,277.57009 v 7.47861 q 0,1.48828 0.136425,2.08359 0.111622,0.42168 0.334864,0.60772 0.223242,0.18603 0.471289,0.18603 0.310058,0 0.570508,-0.31005 0.272851,-0.31006 0.396875,-1.22784 h 0.508496 q -0.21084,1.66192 -0.818555,2.29444 -0.607715,0.63252 -1.537891,0.63252 -0.917773,0 -1.463476,-0.55811 -0.545703,-0.5581 -0.657324,-1.93476 -1.265039,1.40146 -2.406055,1.95957 -1.128613,0.5457 -1.95957,0.5457 -0.558106,0 -1.091406,-0.22324 -0.533301,-0.21084 -1.041797,-0.63252 -0.0248,1.79834 0.310058,3.13779 0.235645,0.95498 0.235645,1.33945 0,0.66973 -0.347266,1.0666 -0.334863,0.39688 -0.768945,0.39688 -0.446485,0 -0.731738,-0.34727 -0.384473,-0.47129 -0.384473,-1.17822 0,-0.34726 0.148828,-0.86816 0.347266,-1.16582 0.434082,-2.03399 0.148828,-1.48828 0.148828,-2.53008 v -9.88466 h 2.083594 v 7.15615 q 0,1.26504 0.21084,1.82314 0.21084,0.55811 0.756543,0.88057 0.545703,0.32246 1.091406,0.32246 0.644922,0 1.525488,-0.38447 0.880567,-0.38447 1.785938,-1.24024 v -8.55761 z"
         style=""
         id="path3281" />
    </g>
    <text
       id="text857"
       y="288.98727"
       x="30.238102"
       style="font-style:normal;font-weight:normal;font-size:10.58333302px;line-height:1.25;font-family:sans-serif;letter-spacing:0px;word-spacing:0px;fill:#2c3e50;fill-opacity:1;stroke:none;stroke-width:0.26458332"
       xml:space="preserve"><tspan
         style="fill:#2c3e50;fill-opacity:1;stroke-width:0.26458332"
         y="288.98727"
         x="30.238102"
         id="tspan855"
         sodipodi:role="line">ate</tspan></text>
  </g>
</svg>
